<?xml version="1.0" encoding="UTF-8"?>
<svg xmlns="http://www.w3.org/2000/svg" xmlns:xlink="http://www.w3.org/1999/xlink" viewBox="0 0 33 33" width="33px" height="33px">
<g id="surface1991072">
<path style=" stroke:none;fill-rule:nonzero;fill:rgb(18.039216%,80.000001%,44.313726%);fill-opacity:1;" d="M 27.058594 2.640625 L 5.941406 2.640625 C 4.117188 2.640625 2.640625 4.117188 2.640625 5.941406 L 2.640625 27.058594 C 2.640625 28.882812 4.117188 30.359375 5.941406 30.359375 L 27.058594 30.359375 C 28.882812 30.359375 30.359375 28.882812 30.359375 27.058594 L 30.359375 5.941406 C 30.359375 4.117188 28.882812 2.640625 27.058594 2.640625 Z M 24.421875 12.539062 L 23.101562 12.539062 C 21.6875 12.539062 21.121094 12.871094 21.121094 13.859375 L 21.121094 15.839844 L 24.421875 15.839844 L 23.761719 19.140625 L 21.121094 19.140625 L 21.121094 29.039062 L 17.820312 29.039062 L 17.820312 19.140625 L 15.179688 19.140625 L 15.179688 15.839844 L 17.820312 15.839844 L 17.820312 13.859375 C 17.820312 11.21875 19.140625 9.238281 21.78125 9.238281 C 23.695312 9.238281 24.421875 9.898438 24.421875 9.898438 Z M 24.421875 12.539062 "/>
</g>
</svg>
