<?xml version="1.0" encoding="UTF-8"?>
<svg xmlns="http://www.w3.org/2000/svg" xmlns:xlink="http://www.w3.org/1999/xlink" viewBox="0 0 33 33" width="33px" height="33px">
<g id="surface2010987">
<path style=" stroke:none;fill-rule:nonzero;fill:rgb(18.039216%,80.000001%,44.313726%);fill-opacity:1;" d="M 10.558594 1.980469 C 5.828125 1.980469 1.980469 5.828125 1.980469 10.558594 L 1.980469 22.441406 C 1.980469 27.171875 5.828125 31.019531 10.558594 31.019531 L 22.441406 31.019531 C 27.171875 31.019531 31.019531 27.171875 31.019531 22.441406 L 31.019531 10.558594 C 31.019531 5.828125 27.171875 1.980469 22.441406 1.980469 Z M 10.558594 3.300781 L 22.441406 3.300781 C 26.457031 3.300781 29.699219 6.542969 29.699219 10.558594 L 29.699219 22.441406 C 29.699219 26.457031 26.457031 29.699219 22.441406 29.699219 L 10.558594 29.699219 C 6.542969 29.699219 3.300781 26.457031 3.300781 22.441406 L 3.300781 10.558594 C 3.300781 6.542969 6.542969 3.300781 10.558594 3.300781 Z M 24.421875 7.261719 C 23.691406 7.261719 23.101562 7.851562 23.101562 8.578125 C 23.101562 9.308594 23.691406 9.898438 24.421875 9.898438 C 25.148438 9.898438 25.738281 9.308594 25.738281 8.578125 C 25.738281 7.851562 25.148438 7.261719 24.421875 7.261719 Z M 16.5 9.238281 C 12.5 9.238281 9.238281 12.5 9.238281 16.5 C 9.238281 20.5 12.5 23.761719 16.5 23.761719 C 20.5 23.761719 23.761719 20.5 23.761719 16.5 C 23.761719 12.5 20.5 9.238281 16.5 9.238281 Z M 16.5 10.558594 C 19.789062 10.558594 22.441406 13.210938 22.441406 16.5 C 22.441406 19.789062 19.789062 22.441406 16.5 22.441406 C 13.210938 22.441406 10.558594 19.789062 10.558594 16.5 C 10.558594 13.210938 13.210938 10.558594 16.5 10.558594 Z M 16.5 10.558594 "/>
</g>
</svg>
